<?xml version="1.0" standalone="no"?>
<!DOCTYPE svg PUBLIC "-//W3C//DTD SVG 20010904//EN"
 "http://www.w3.org/TR/2001/REC-SVG-20010904/DTD/svg10.dtd">
<svg version="1.0" xmlns="http://www.w3.org/2000/svg"
 width="277.000000pt" height="277.000000pt" viewBox="0 0 277.000000 277.000000"
 preserveAspectRatio="xMidYMid meet">
<metadata>
Created by potrace 1.11, written by Peter Selinger 2001-2013
</metadata>
<g transform="translate(0.000000,277.000000) scale(0.100000,-0.100000)"
fill="#000000" stroke="none">
<path d="M980 2204 c-24 -7 -46 -11 -48 -9 -3 2 -23 -8 -46 -24 -22 -15 -56
-33 -75 -39 -19 -7 -40 -21 -48 -32 -8 -11 -23 -20 -34 -20 -35 0 -122 -99
-142 -160 -10 -29 -16 -55 -14 -56 2 -2 20 5 40 15 28 14 53 18 102 16 35 -2
69 -6 75 -10 18 -11 10 -25 -15 -25 -14 0 -25 -4 -25 -10 0 -5 -6 -10 -13 -10
-14 0 -37 -40 -37 -65 0 -8 -4 -15 -10 -15 -20 0 -9 -15 19 -28 20 -9 48 -11
88 -6 131 15 183 16 183 4 0 -6 11 -26 24 -43 18 -24 23 -42 21 -74 -1 -24 1
-43 6 -43 5 0 6 -7 2 -16 -5 -13 -20 -15 -87 -12 -44 2 -90 9 -101 15 -11 5
-30 9 -43 8 -13 -1 -25 2 -28 7 -3 4 -18 8 -35 8 -16 0 -29 4 -29 8 0 5 -13 7
-29 6 -16 -1 -42 5 -57 12 -15 8 -33 13 -41 10 -7 -3 -15 -1 -18 5 -4 5 -10 7
-15 4 -5 -3 -19 -1 -31 6 -17 9 -20 8 -13 -3 6 -10 5 -11 -8 -1 -8 7 -18 10
-21 6 -4 -3 -7 1 -7 10 0 10 -4 17 -9 17 -16 0 -19 36 -5 61 7 13 13 18 14 12
0 -7 6 -13 13 -13 18 0 67 -24 67 -32 0 -5 6 -8 13 -8 6 0 25 -7 41 -15 15 -8
32 -12 37 -9 5 3 9 1 9 -4 0 -5 12 -14 26 -20 14 -7 23 -8 20 -3 -3 5 1 12 10
15 9 3 12 2 9 -5 -10 -16 27 -40 42 -27 9 8 13 7 13 -3 0 -8 9 0 20 16 11 17
20 25 20 18 0 -6 -4 -15 -10 -18 -15 -9 -12 -25 5 -25 8 0 15 5 15 10 0 6 12
10 28 10 24 -1 25 -2 10 -14 -29 -22 -21 -26 53 -26 44 0 68 -4 64 -10 -3 -5
0 -7 8 -4 8 3 14 13 12 22 -2 9 -4 20 -4 25 -1 4 -8 7 -17 7 -8 0 -13 -4 -9
-9 3 -5 1 -13 -5 -16 -6 -4 -10 -3 -9 2 4 24 -3 31 -25 27 -14 -2 -28 0 -31 6
-3 5 -21 10 -40 10 -19 0 -37 5 -40 10 -4 6 -28 10 -53 9 -42 -1 -109 21 -97
32 2 3 -7 6 -21 7 -14 1 -33 6 -44 12 -13 7 -20 6 -23 -3 -3 -6 -6 -2 -6 11
-1 12 -7 22 -16 22 -8 0 -14 6 -13 13 2 7 -6 12 -19 11 -13 -1 -20 3 -17 7 3
5 0 9 -6 9 -6 0 -8 5 -5 10 3 6 -1 10 -9 10 -8 0 -18 -4 -21 -10 -3 -5 -15
-10 -26 -10 -35 0 -53 -28 -55 -87 -1 -30 -4 -56 -6 -58 -4 -4 -109 23 -133
35 -28 13 -53 8 -70 -16 -18 -26 -2 -59 40 -82 17 -10 33 -20 36 -24 3 -5 17
-9 32 -10 18 -2 26 -7 22 -16 -2 -7 0 -10 5 -7 11 7 70 -50 70 -67 0 -5 4 -7
9 -4 10 7 34 -18 25 -27 -9 -8 32 -27 41 -19 5 4 5 -1 2 -11 -5 -12 -1 -20 11
-24 25 -9 71 -54 82 -80 5 -13 16 -23 24 -23 9 0 20 -9 26 -20 6 -11 16 -20
23 -20 7 0 23 -9 37 -20 14 -11 30 -20 37 -20 6 0 22 -4 35 -9 13 -5 26 -8 29
-7 3 0 13 -5 21 -11 8 -7 27 -14 41 -15 15 -1 29 -8 31 -15 3 -7 14 -13 24
-13 26 0 34 -11 20 -27 -7 -9 0 -8 22 4 24 14 34 15 37 5 3 -6 9 -10 14 -6 5
3 12 -3 16 -13 4 -10 11 -21 17 -25 7 -5 3 -8 -9 -8 -19 -1 -19 -1 -2 -14 24
-18 20 -63 -13 -141 -5 -11 -12 -30 -15 -42 -4 -13 -11 -23 -16 -23 -5 0 -7
-16 -5 -35 4 -27 0 -35 -15 -40 -10 -4 -22 -16 -25 -29 -7 -28 -76 -55 -156
-59 -32 -2 -61 -6 -64 -10 -4 -4 -21 -7 -38 -7 -17 0 -40 -9 -52 -21 l-23 -22
25 -20 c37 -29 104 -26 182 9 18 8 37 12 42 9 6 -3 10 -1 10 5 0 8 6 7 21 -1
12 -6 19 -7 16 -2 -4 6 7 10 23 11 16 0 35 4 42 8 7 5 29 9 48 11 65 5 93 12
100 23 9 15 135 49 150 40 6 -3 12 -16 15 -28 3 -20 0 -22 -44 -22 -26 0 -52
5 -59 12 -9 9 -16 8 -29 -5 -10 -8 -22 -17 -28 -19 -5 -2 -9 -8 -9 -15 1 -7
-1 -12 -5 -11 -16 2 -31 -3 -31 -10 0 -4 101 -8 224 -7 145 0 224 3 223 10 -1
5 4 10 11 9 38 -3 43 -5 37 -14 -3 -5 3 -10 15 -10 12 0 30 -5 41 -10 15 -9
26 -6 50 11 22 15 27 25 20 32 -6 6 -11 21 -11 32 0 12 -13 31 -30 43 -35 26
-84 47 -75 32 4 -7 -2 -7 -19 0 -19 7 -29 5 -41 -6 -11 -12 -15 -12 -15 -2 0
8 -3 9 -8 3 -6 -10 -23 -12 -37 -5 -6 3 -22 7 -34 9 -14 2 -5 111 10 126 13
13 101 40 164 52 17 3 35 12 42 20 6 8 16 12 22 9 5 -4 13 3 16 14 4 12 17 26
29 31 12 6 26 20 31 32 12 26 45 36 45 13 0 -19 98 -116 117 -116 7 0 13 -4
13 -8 0 -16 139 -50 185 -46 114 12 141 20 186 55 43 34 56 26 66 -37 5 -29 3
-35 -7 -29 -8 5 -11 4 -7 -2 7 -10 -10 -73 -19 -73 -3 0 -15 9 -27 20 -13 12
-32 20 -47 18 -26 -3 -60 -26 -60 -42 0 -5 -9 -17 -21 -27 -11 -10 -18 -22
-15 -28 4 -5 2 -12 -4 -16 -7 -4 -7 -12 0 -25 7 -13 6 -20 -3 -23 -9 -4 -9 -7
1 -18 9 -10 41 -13 124 -11 l112 2 30 37 c17 20 31 43 32 50 3 20 24 43 39 43
7 0 15 9 18 21 3 12 10 19 14 16 5 -3 9 6 10 21 1 36 31 180 41 198 4 8 5 44
1 81 -6 58 -10 69 -38 90 -20 16 -30 31 -27 42 3 9 8 40 11 70 3 30 8 58 11
63 3 4 0 17 -6 28 -6 12 -13 30 -15 41 -2 11 -11 26 -20 35 -8 9 -13 20 -10
25 4 5 1 9 -4 9 -6 0 -11 6 -11 13 0 7 -8 20 -19 29 -10 8 -20 20 -22 24 -9
21 -139 114 -158 114 -12 0 -34 6 -49 13 -15 7 -37 12 -50 11 -13 -1 -21 3
-19 10 3 6 8 10 13 9 5 -1 9 14 8 33 -1 20 4 37 12 42 8 4 16 17 18 28 2 11
13 35 25 54 11 19 25 45 31 58 5 12 14 22 19 22 6 0 21 19 35 42 22 37 23 43
10 63 -8 12 -12 24 -9 26 7 8 -58 10 -98 4 -20 -4 -35 -11 -32 -15 7 -11 -8
-20 -39 -22 -16 -2 -28 -10 -32 -22 -10 -31 -25 3 -18 41 4 24 1 37 -14 53
l-20 22 -65 -64 c-81 -78 -116 -108 -128 -108 -5 0 -9 -6 -9 -12 0 -7 -11 -18
-24 -24 -21 -10 -26 -9 -32 5 -4 11 -8 12 -11 4 -3 -7 -9 -13 -15 -13 -6 0 -3
9 7 20 16 18 14 24 -7 21 -4 0 -5 6 -2 14 4 8 10 12 15 9 5 -3 9 -3 9 0 0 5
-49 29 -81 39 -9 3 -30 -2 -47 -10 -26 -13 -31 -20 -28 -44 2 -21 -1 -29 -13
-29 -12 0 -13 -2 -3 -9 15 -9 10 -47 -9 -83 -17 -30 -20 -48 -8 -48 5 0 9 -4
9 -10 0 -5 -7 -7 -15 -4 -8 4 -17 -1 -21 -10 -3 -9 -10 -13 -15 -11 -5 3 -11
-5 -15 -19 -3 -13 -13 -27 -21 -31 -14 -5 -14 -3 -2 11 13 16 11 17 -13 12
-21 -4 -25 -2 -20 11 3 9 2 13 -3 9 -8 -7 -35 15 -35 29 0 4 -9 14 -21 21 -12
7 -18 16 -15 19 3 4 -3 13 -15 21 -13 9 -18 20 -14 30 3 9 3 13 -1 10 -8 -9
-19 3 -69 72 -22 30 -47 62 -55 71 -8 9 -28 33 -44 53 -15 21 -42 46 -60 57
-26 16 -28 19 -11 20 11 1 23 1 28 0 19 -3 4 18 -20 28 -62 25 -88 28 -133 15z
m20 -152 c0 -7 5 -10 10 -7 6 3 13 -1 16 -10 11 -28 -4 -28 -33 -1 -33 31 -67
33 -110 6 -18 -11 -33 -16 -33 -11 0 10 49 44 68 47 8 2 16 5 18 7 9 9 64 -17
64 -31z m1196 -72 c-14 -17 -26 -38 -26 -46 0 -8 -16 -38 -35 -67 -19 -28 -35
-55 -35 -59 0 -4 -27 -35 -60 -68 -85 -86 -180 -245 -184 -306 0 -12 -4 -20
-8 -17 -5 2 -8 -12 -8 -32 0 -20 -4 -34 -9 -31 -14 9 -18 -14 -14 -99 3 -100
7 -125 19 -133 5 -4 20 -27 33 -52 23 -43 85 -108 106 -112 6 0 24 -3 40 -5
17 -2 35 -4 40 -5 18 -2 90 11 118 21 15 6 27 8 27 5 0 -4 6 -2 13 4 8 7 18 7
27 2 22 -14 -24 -53 -87 -74 -53 -18 -173 -19 -173 -2 0 5 -3 6 -6 3 -4 -3
-16 0 -28 8 -11 8 -29 15 -39 15 -10 0 -15 5 -12 10 3 6 1 10 -6 10 -6 0 -18
8 -26 18 -8 9 -11 11 -8 3 5 -9 -1 -8 -19 4 -16 11 -26 26 -26 41 0 13 -5 24
-11 24 -5 0 -7 4 -4 10 3 5 -1 20 -9 32 -18 29 -27 153 -12 169 8 9 8 10 -2 5
-9 -6 -11 -1 -7 21 12 57 15 74 19 96 6 32 38 98 59 119 9 10 17 25 17 33 0 8
5 15 12 15 6 0 9 3 5 6 -3 4 5 27 19 52 14 26 27 53 29 62 6 26 24 70 30 70 4
0 3 -5 -1 -12 -4 -7 -3 -8 4 -4 7 4 12 13 12 21 0 7 6 20 13 27 19 19 69 98
61 98 -3 0 4 13 15 29 22 31 26 47 14 54 -5 2 -2 2 4 1 7 -2 20 11 29 27 12
23 12 29 2 24 -7 -3 0 5 17 19 63 54 122 26 71 -34z m-1304 0 c-4 -14 -15 -26
-24 -28 -22 -4 -23 11 -2 44 20 30 37 19 26 -16z m93 -17 c8 -27 -2 -29 -33
-7 -18 13 -20 19 -11 36 9 17 13 18 24 7 7 -8 16 -24 20 -36z m1045 12 c0 -8
-4 -15 -10 -15 -5 0 -7 7 -4 15 4 8 8 15 10 15 2 0 4 -7 4 -15z m70 1 c0 -3
-4 -8 -10 -11 -5 -3 -10 -1 -10 4 0 6 5 11 10 11 6 0 10 -2 10 -4z m-418 -44
c6 -6 11 -29 12 -51 1 -32 -3 -41 -19 -45 -17 -5 -18 -7 -5 -16 13 -8 12 -10
-2 -10 -10 0 -18 -5 -18 -10 0 -6 -47 -59 -104 -118 -58 -59 -114 -118 -124
-130 -11 -12 -24 -22 -29 -22 -5 0 -25 -16 -45 -34 -20 -19 -52 -42 -70 -52
-18 -9 -43 -25 -55 -36 -36 -33 -133 -46 -133 -18 0 5 9 11 20 15 10 3 33 25
50 47 16 23 30 37 30 30 0 -6 11 -1 24 11 26 24 96 72 109 75 4 0 16 10 25 21
9 11 24 21 32 23 8 2 22 11 31 20 9 10 19 15 22 12 3 -3 13 6 22 20 10 14 22
23 27 20 11 -7 115 98 121 124 20 74 21 78 26 123 1 18 35 19 53 1z m305 -34
c-3 -8 -6 -5 -6 6 -1 11 2 17 5 13 3 -3 4 -12 1 -19z m-81 -73 c-2 -19 -11
-46 -20 -60 -9 -14 -14 -25 -11 -25 3 0 -3 -8 -12 -18 -10 -10 -34 -37 -54
-60 -20 -23 -43 -42 -50 -42 -12 0 -12 -2 0 -9 11 -7 10 -12 -7 -29 -11 -11
-31 -23 -44 -27 -12 -4 -39 -23 -58 -41 -84 -80 -112 -104 -121 -104 -6 0 -7
-4 -4 -10 3 -5 3 -10 -2 -10 -4 0 -22 -13 -40 -28 -17 -15 -46 -35 -63 -45
-23 -12 -30 -22 -26 -34 5 -12 3 -13 -7 -5 -10 8 -20 7 -41 -3 -35 -18 -36
-18 -36 0 0 8 -5 14 -11 12 -6 -1 -13 3 -15 8 -3 8 86 75 100 75 3 0 22 15 42
34 21 19 42 32 46 30 5 -3 7 0 6 8 -2 7 4 12 12 10 8 -2 12 0 7 4 -10 10 43
65 56 57 6 -3 7 -1 4 4 -7 11 11 30 46 48 11 5 28 24 38 40 9 17 22 29 28 28
6 -2 10 3 8 10 -1 6 4 11 10 10 7 -2 12 2 10 9 -1 7 3 12 9 13 6 0 25 15 44
33 25 25 35 30 41 20 5 -7 9 -8 10 -3 1 6 2 15 3 20 0 6 20 30 44 55 23 25 42
48 42 52 0 5 4 8 9 8 6 0 8 -16 7 -35z m-1206 -169 c0 -2 -7 -6 -15 -10 -8 -3
-15 -1 -15 4 0 6 7 10 15 10 8 0 15 -2 15 -4z m1482 -13 c6 9 8 9 8 0 0 -7 22
-23 49 -36 71 -36 171 -123 171 -149 0 -7 5 -19 11 -25 21 -21 32 -170 13
-203 -7 -14 -13 -19 -14 -12 0 6 -3 11 -7 11 -21 -3 -24 3 -12 18 10 11 10 14
2 9 -12 -7 -17 10 -16 51 1 7 -2 11 -6 8 -4 -2 -16 16 -26 41 -10 24 -22 44
-27 44 -4 0 -8 7 -8 15 0 29 -141 147 -166 138 -11 -4 -39 45 -35 61 1 4 -3
14 -9 21 -9 11 -4 11 27 5 26 -6 40 -5 45 3z m-1727 -53 c6 -4 29 -8 53 -9 24
-1 54 -6 66 -11 13 -5 27 -6 31 -2 4 4 12 0 18 -8 17 -21 33 -25 182 -40 50
-5 101 -11 115 -14 14 -2 37 -5 52 -5 37 -1 61 -27 48 -51 -14 -26 -13 -43 2
-34 7 4 1 -4 -14 -18 -23 -22 -26 -31 -19 -55 12 -40 -8 -55 -61 -48 -77 9
-152 23 -213 40 -33 9 -67 18 -75 20 -8 2 -53 16 -100 32 -69 24 -86 33 -88
52 -3 18 1 21 22 18 14 -1 28 -6 32 -10 4 -4 14 -1 22 5 11 10 16 9 23 -4 6
-10 17 -14 31 -10 14 3 19 2 14 -6 -9 -16 7 -15 22 0 9 9 12 9 12 0 0 -7 13
-12 31 -12 17 0 40 -5 51 -11 15 -8 19 -8 14 0 -10 16 3 14 20 -4 8 -8 22 -11
31 -8 11 4 14 3 9 -5 -4 -7 -2 -12 3 -12 6 0 11 6 11 13 0 9 2 9 8 0 4 -6 30
-12 57 -13 80 -3 85 -2 85 20 0 18 -7 20 -80 20 -44 0 -80 4 -80 9 0 14 -37
20 -49 8 -8 -8 -11 -8 -11 1 0 6 -7 9 -17 5 -11 -4 -14 -3 -9 6 5 8 3 11 -5
10 -8 -2 -47 5 -87 14 -40 10 -78 14 -84 11 -6 -4 -8 -3 -5 3 4 6 -2 13 -13
16 -11 3 -18 1 -14 -4 8 -13 -3 -11 -18 4 -16 17 -68 31 -68 18 0 -5 9 -11 20
-14 11 -3 20 -11 20 -19 0 -9 -3 -10 -8 -2 -4 7 -16 14 -27 16 -11 2 -19 10
-17 16 1 7 -1 11 -5 10 -21 -6 -88 46 -79 61 6 10 126 11 141 1z m1197 -260
c-4 -3 -8 -12 -10 -20 -2 -8 -8 -16 -13 -18 -5 -2 -9 -8 -9 -12 0 -12 -90
-109 -111 -121 -13 -6 -21 -2 -34 18 -17 26 -17 26 21 59 22 18 43 33 48 34 8
0 38 26 89 76 9 9 14 9 19 1 4 -6 4 -14 0 -17z m-497 -25 c28 -10 69 -31 93
-46 24 -16 45 -29 47 -29 3 0 17 -13 32 -28 38 -39 89 -73 97 -65 3 3 6 -1 6
-10 0 -9 5 -19 12 -23 7 -4 8 -3 4 4 -5 8 -1 10 10 5 11 -4 13 -8 6 -11 -7 -2
-12 -10 -12 -17 0 -27 -39 -24 -64 6 -14 16 -29 29 -34 29 -5 0 -17 9 -27 20
-10 11 -20 18 -23 16 -2 -3 -11 2 -19 10 -9 8 -22 13 -30 10 -8 -3 -12 -2 -9
3 3 5 -14 17 -38 27 -24 10 -42 23 -39 28 4 5 1 6 -6 2 -6 -4 -17 -3 -24 2
-17 13 -89 37 -104 34 -8 -2 -7 7 4 27 10 16 22 29 28 28 5 -1 9 5 7 13 -3 12
-1 12 15 -1 10 -9 41 -24 68 -34z m-465 -15 c0 -7 19 -10 68 -10 17 0 32 -3
32 -7 0 -5 26 -9 58 -10 31 -2 70 -6 87 -11 25 -7 29 -13 29 -40 -1 -18 2 -32
5 -32 4 0 7 -9 8 -20 2 -21 -21 -28 -32 -10 -4 6 -10 8 -15 5 -5 -3 -26 2 -47
11 -53 22 -146 55 -160 56 -7 1 -13 5 -13 10 0 5 -4 7 -8 4 -12 -7 -72 31 -72
46 0 8 13 14 30 14 17 1 30 -2 30 -6z m356 -369 c-3 -4 3 -16 14 -26 27 -25
26 -55 -2 -55 -12 0 -18 -3 -15 -7 4 -3 1 -13 -6 -22 -23 -27 -45 -95 -40
-122 4 -24 1 -27 -38 -33 -24 -4 -49 -12 -56 -18 -7 -6 -13 -6 -13 -1 0 10 29
51 30 41 0 -3 14 7 30 22 26 24 30 34 26 65 -3 27 1 45 15 64 11 15 21 40 22
56 2 29 13 45 30 45 5 0 6 -4 3 -9z m125 -103 c36 -20 41 -26 38 -45 0 -3 6
-10 15 -15 20 -11 21 -34 1 -42 -9 -3 -15 0 -15 8 0 8 -6 16 -12 18 -21 6 -92
3 -115 -5 -17 -6 -23 -5 -23 6 0 19 24 39 35 29 5 -4 5 -1 1 6 -4 7 -12 10
-17 7 -12 -8 -11 -1 3 30 14 31 38 32 89 3z m-401 -203 c-7 -8 -22 -14 -34
-14 -11 0 -35 -2 -53 -6 -18 -3 -34 -1 -38 5 -4 6 7 10 27 11 18 1 44 5 58 9
43 14 54 12 40 -5z"/>
<path d="M1821 1004 c0 -11 3 -14 6 -6 3 7 2 16 -1 19 -3 4 -6 -2 -5 -13z"/>
<path d="M956 1384 c-4 -9 -4 -19 -2 -21 8 -8 26 8 26 23 0 19 -16 18 -24 -2z"/>
</g>
</svg>
